<?xml version="1.0" encoding="UTF-8"?>
<svg version="1.1" xmlns="http://www.w3.org/2000/svg" width="631" height="283">
<path d="M0 0 C208.23 0 416.46 0 631 0 C631 93.39 631 186.78 631 283 C422.77 283 214.54 283 0 283 C0 189.61 0 96.22 0 0 Z " fill="#F5F5F5" transform="translate(0,0)"/>
<path d="M0 0 C3.76864251 2.15136079 5.84038391 4.37291513 7.6875 8.375 C7.95623802 14.00655444 7.36224102 19.1578614 6.375 24.6875 C2.22431325 49.7027996 0.53318995 75.03358946 -1.17254639 100.31036377 C-1.29210481 102.07412431 -1.41543963 103.83762819 -1.53955078 105.60107422 C-2.41396961 118.38157988 -2.43217097 131.19583862 -2.48672485 144.00109863 C-2.49546838 145.976292 -2.50693516 147.95147549 -2.52133179 149.92663574 C-2.59737716 161.74446374 -2.2664244 172.86150264 0.6875 184.375 C3.07784684 184.36043962 3.07784684 184.36043962 5.6875 183.375 C7.20796659 181.25789462 8.23303677 179.46257003 9.3125 177.125 C9.64604492 176.42737549 9.97958984 175.72975098 10.32324219 175.01098633 C17.17492857 160.22945311 22.6058789 144.73199479 27.7421875 129.28125 C27.99895264 128.51359818 28.25571777 127.74594635 28.52026367 126.95503235 C29.76564486 123.22837026 30.9939185 119.49790557 32.18847656 115.75463867 C37.20923144 100.37049503 44.89356173 82.67320162 59.5 74.25 C65.92192762 71.44788562 72.55880439 71.14637004 79.2734375 73.14453125 C86.99648302 76.36460504 92.04407086 80.83891693 95.6875 88.375 C100.33130203 101.09497946 103.30823347 114.9678887 98.7265625 128.15625 C95.74286976 134.52744352 91.07784129 138.62054255 84.6875 141.375 C81.82359743 141.78561398 79.61467176 141.67267848 76.6875 141.375 C74.6875 139.375 74.6875 139.375 74.46875 135.3984375 C74.58521659 130.18863732 75.37078295 125.13799323 76.1875 120 C77.72140671 109.72659624 78.01073011 99.74230662 77.6875 89.375 C70.89724993 92.72991205 69.26300525 98.58761876 66.6875 105.375 C65.11390659 110.32812289 63.86261687 115.31416336 62.6875 120.375 C62.38714844 121.51066406 62.08679688 122.64632812 61.77734375 123.81640625 C59.86542112 131.77533999 59.35277299 139.4589336 59.25 147.625 C59.22776367 148.61878662 59.20552734 149.61257324 59.18261719 150.63647461 C59.20336536 157.58077405 60.10481965 164.29852495 63.6875 170.375 C69.11009584 174.28169359 74.20160069 174.37601252 80.6875 173.375 C84.1814316 171.8846198 86.83272174 169.85811845 89.6875 167.375 C90.32945312 166.85292969 90.97140625 166.33085937 91.6328125 165.79296875 C102.83778896 155.74478136 110.01250474 140.85401157 115.86889648 127.23120117 C116.6441115 125.47338435 117.5093074 123.7560584 118.37890625 122.04296875 C120.38096072 116.43123996 120.12281431 110.93147889 120.12695312 105.02539062 C120.2463331 99.29926822 120.81492551 95.89890329 124.6875 91.375 C128.50166215 88.08095087 131.48063599 86.69822004 136.60546875 86.9921875 C141.75038038 87.93815624 146.05481623 90.3797542 149.6875 94.125 C153.61518198 100.50748322 151.36368326 108.47430954 150.25 115.5625 C148.45282733 127.69891068 147.59778125 139.54049568 147.5 151.8125 C147.48030151 153.37834839 147.48030151 153.37834839 147.46020508 154.97583008 C147.45474518 160.17155391 147.58094161 164.52075676 149.6875 169.375 C152.75790977 169.06977545 154.25298688 168.87096661 156.32568359 166.50512695 C159.9685113 160.05088887 162.8027018 153.5316718 165.3125 146.5625 C165.68117188 145.57185547 166.04984375 144.58121094 166.4296875 143.56054688 C167.55112793 140.51014994 168.62330275 137.44578896 169.6875 134.375 C170.05246582 133.38113281 170.41743164 132.38726562 170.79345703 131.36328125 C174.01470764 121.99022405 174.6963417 112.81083017 175.3125 103 C175.52700796 99.82502381 175.75014901 96.65071016 175.9765625 93.4765625 C176.0299176 92.71192688 176.08327271 91.94729126 176.13824463 91.15948486 C176.67320153 83.8504875 177.6135123 76.62340633 178.6875 69.375 C177.42292969 69.39820312 176.15835937 69.42140625 174.85546875 69.4453125 C173.1953184 69.46407126 171.53516167 69.48227135 169.875 69.5 C169.04162109 69.51675781 168.20824219 69.53351563 167.34960938 69.55078125 C166.54716797 69.55722656 165.74472656 69.56367187 164.91796875 69.5703125 C164.17957764 69.58078613 163.44118652 69.59125977 162.68041992 69.60205078 C160.6875 69.375 160.6875 69.375 157.6875 67.375 C154.3259148 67.76308545 151.30588877 68.8233816 148.125 69.9375 C137.63127424 73.07319912 127.6788538 71.66499387 117.6875 67.375 C113.69656689 64.34189084 111.33064103 61.12185187 109.6875 56.375 C109.41895189 50.40249 110.6622285 45.90343043 114.6875 41.375 C122.67054155 34.49544583 133.50898795 30.52390477 144.08203125 31.05859375 C152.80617504 32.11804749 160.90783174 33.20528495 166.6875 40.375 C169.22587625 44.56883903 168.84925349 48.60327215 168.6875 53.375 C172.3175 53.375 175.9475 53.375 179.6875 53.375 C179.71328125 52.14523438 179.7390625 50.91546875 179.765625 49.6484375 C179.82193006 48.01559068 179.87927685 46.38277955 179.9375 44.75 C179.95167969 43.94175781 179.96585937 43.13351563 179.98046875 42.30078125 C180.19989439 36.90291044 181.05615134 33.62128292 184.6875 29.375 C188.19490204 26.67032296 191.83246386 25.49714802 196.1875 24.875 C201.97106477 25.70122354 206.63737571 27.91999616 210.6875 32.1875 C214.69106914 38.56818832 212.25065931 45.43848057 210.6875 52.375 C211.77289062 52.34019531 212.85828125 52.30539063 213.9765625 52.26953125 C215.42185942 52.24137612 216.86717321 52.21407781 218.3125 52.1875 C219.02535156 52.16236328 219.73820312 52.13722656 220.47265625 52.11132812 C226.18716025 52.03268816 230.38140078 53.14329108 234.625 57.25 C235.6875 59.375 235.6875 59.375 235.875 61.8125 C233.99457145 65.87026686 230.70847785 67.60056374 226.6875 69.375 C223.31665986 69.93190967 220.09166444 69.85744677 216.6875 69.6875 C215.81738281 69.66494141 214.94726562 69.64238281 214.05078125 69.61914062 C211.92892749 69.56084794 209.80797371 69.47119084 207.6875 69.375 C207.69837646 70.07810303 207.70925293 70.78120605 207.72045898 71.50561523 C207.78920652 79.52550625 207.35393626 87.4430668 206.75 95.4375 C206.56556154 98.02598162 206.38196656 100.61452347 206.19921875 103.203125 C205.71620059 109.97769662 205.71620059 109.97769662 205.49462891 113.04492188 C204.77792523 123.24664993 204.56733917 133.44636208 204.51226807 143.67098999 C204.50422583 145.07483984 204.49322323 146.47867655 204.47894287 147.88247681 C204.39942776 156.59751675 204.91597901 164.83255517 206.6875 173.375 C209.28396819 173.00945746 210.43132366 172.66132442 212.20605469 170.67773438 C215.86514393 164.9179154 219.02907987 159.04670951 221.9375 152.875 C222.40422119 151.89684326 222.87094238 150.91868652 223.35180664 149.91088867 C227.41805573 141.24878468 230.9806934 132.40795106 234.33886719 123.44921875 C234.91169434 121.95261719 234.91169434 121.95261719 235.49609375 120.42578125 C235.82407959 119.54575439 236.15206543 118.66572754 236.48999023 117.7590332 C237.86405105 115.02351763 239.34638401 113.33742659 241.6875 111.375 C245.44617513 110.73522551 247.22701757 111.13986004 250.625 112.875 C252.6875 115.375 252.6875 115.375 252.55078125 118.76953125 C251.65102244 124.53976628 249.75969937 130.0299343 247.9375 135.5625 C247.57333984 136.67874756 247.20917969 137.79499512 246.83398438 138.94506836 C231.51540286 185.53001752 231.51540286 185.53001752 211.90234375 197.4609375 C205.65571894 200.35215662 198.3858898 200.32393855 191.6875 199.375 C185.11758461 196.50628695 182.2217811 189.70138553 179.6875 183.375 C177.68460683 177.7752445 176.32981668 172.28431348 175.6875 166.375 C173.47876794 169.27981732 171.38170002 172.24451038 169.3125 175.25 C163.8643128 182.97487249 158.33817141 190.66091515 148.54296875 192.85546875 C141.2820582 193.15621652 135.53814368 190.3478429 130 185.9375 C122.24394566 178.63611091 120.03760251 168.61159817 118.6875 158.375 C118.12095703 159.35726562 118.12095703 159.35726562 117.54296875 160.359375 C110.41534782 172.17753805 102.03616524 181.85379476 89.6875 188.375 C88.8109375 188.8803125 87.934375 189.385625 87.03125 189.90625 C77.09065787 194.93239209 64.51617222 195.507636 53.91015625 192.1953125 C48.71611859 189.71706956 44.36855555 186.86128645 40.6875 182.375 C40.006875 181.611875 39.32625 180.84875 38.625 180.0625 C36.98616816 177.78928164 35.79200897 175.70664927 34.56640625 173.20703125 C34.21263916 172.48878174 33.85887207 171.77053223 33.49438477 171.03051758 C33.22811279 170.48419678 32.96184082 169.93787598 32.6875 169.375 C32.2028125 170.46296875 31.718125 171.5509375 31.21875 172.671875 C17.0040297 204.05674509 17.0040297 204.05674509 2.17578125 209.7421875 C-3.48240719 211.18116164 -9.13570217 211.64146212 -14.64453125 209.4453125 C-24.33812117 203.1806215 -27.12051025 190.84354109 -29.5 180.24609375 C-30.53724249 175.30423171 -31.50973614 170.36058606 -32.3125 165.375 C-32.78558594 166.28121094 -33.25867188 167.18742188 -33.74609375 168.12109375 C-39.13581227 178.16588302 -45.01636677 187.59400102 -56.19921875 191.78515625 C-63.17627458 193.73254152 -69.14281635 191.76092239 -75.3125 188.375 C-79.31736333 185.25366891 -82.40115908 182.50551187 -83.3125 177.375 C-83.9725 177.375 -84.6325 177.375 -85.3125 177.375 C-85.43238281 178.10074219 -85.55226562 178.82648438 -85.67578125 179.57421875 C-87.96463387 189.64236186 -94.27881682 198.64182068 -102.8125 204.25 C-109.41799849 208.33098326 -115.56802621 210.38793614 -123.3125 209.375 C-132.68061824 206.71432696 -139.77581769 200.22768893 -144.8671875 192.08984375 C-149.20725862 183.937548 -152.58374387 175.28495928 -153.98828125 166.1328125 C-154.14459835 164.35386202 -154.14459835 164.35386202 -155.3125 163.375 C-155.92996094 164.220625 -156.54742187 165.06625 -157.18359375 165.9375 C-166.05061686 177.90268218 -174.6826174 185.28435198 -188.3125 191.375 C-189.075625 191.76171875 -189.83875 192.1484375 -190.625 192.546875 C-194.74737212 193.81714083 -198.77311396 193.74365475 -203.0625 193.75 C-203.9184375 193.77449219 -204.774375 193.79898438 -205.65625 193.82421875 C-214.52677734 193.86453933 -222.82007219 190.50757038 -229.3125 184.375 C-241.13699157 170.35060303 -243.49475954 154.12730839 -242.3125 136.375 C-240.15130507 115.85027762 -233.297514 94.18252653 -218.3125 79.375 C-210.5385615 73.16570522 -204.24915611 71.47391193 -194.3125 72.375 C-186.39626983 74.65875549 -180.68835758 78.95990373 -176.51171875 86.03515625 C-173.06393522 92.76226483 -170.62711619 99.78645743 -170.3125 107.375 C-170.24933594 108.53386719 -170.18617188 109.69273438 -170.12109375 110.88671875 C-169.82601618 120.45294317 -170.88671485 127.01111854 -176.625 134.6875 C-180.8457393 138.9082393 -184.52001028 141.57304378 -190.625 141.75 C-194.3125 141.375 -194.3125 141.375 -196.3125 139.375 C-196.75462545 132.7431182 -195.86096962 126.45510357 -194.84765625 119.90234375 C-193.74276034 112.61970864 -193.17650929 105.73537693 -193.25 98.375 C-193.25451172 97.50488281 -193.25902344 96.63476562 -193.26367188 95.73828125 C-193.2753264 93.61715707 -193.29325643 91.4960689 -193.3125 89.375 C-200.10275007 92.72991205 -201.73699475 98.58761876 -204.3125 105.375 C-205.88609341 110.32812289 -207.13738313 115.31416336 -208.3125 120.375 C-208.61285156 121.51066406 -208.91320312 122.64632812 -209.22265625 123.81640625 C-211.13457888 131.77533999 -211.64722701 139.4589336 -211.75 147.625 C-211.78335449 149.11567993 -211.78335449 149.11567993 -211.81738281 150.63647461 C-211.79663464 157.58077405 -210.89518035 164.29852495 -207.3125 170.375 C-201.88990416 174.28169359 -196.79839931 174.37601252 -190.3125 173.375 C-186.8185684 171.8846198 -184.16727826 169.85811845 -181.3125 167.375 C-180.67054688 166.85292969 -180.02859375 166.33085937 -179.3671875 165.79296875 C-165.1105013 153.00812667 -157.00904325 133.13533326 -150.6875 115.5 C-145.12775568 100.01789304 -137.24560036 86.67415321 -122.4921875 78.34765625 C-115.08941805 74.98698476 -106.00184918 75.31602904 -98.3125 77.5625 C-94.40646807 79.08784824 -92.02418913 81.13603799 -89.3125 84.375 C-88.84714844 84.9215625 -88.38179687 85.468125 -87.90234375 86.03125 C-86.68855765 87.46480238 -85.49827391 88.91819206 -84.3125 90.375 C-83.714375 90.065625 -83.11625 89.75625 -82.5 89.4375 C-77.50889602 87.01324949 -72.47934819 86.30386017 -67.1875 88.09375 C-62.81814316 90.14602367 -58.98158814 92.28795879 -56.3125 96.375 C-54.7049062 106.0205628 -57.14038931 116.48643946 -58.55859375 126.04296875 C-59.70695738 133.93590654 -60.50757263 141.76939777 -60.5 149.75 C-60.5009668 150.83365845 -60.5009668 150.83365845 -60.50195312 151.93920898 C-60.44084217 158.21210936 -59.63645921 164.23986759 -58.3125 170.375 C-55.36522465 170.27330839 -55.36522465 170.27330839 -52.3125 169.375 C-51.01255914 167.18472317 -51.01255914 167.18472317 -50.3125 164.375 C-49.25683321 162.16339199 -48.1934899 159.95544139 -47.125 157.75 C-44.30962467 151.81173751 -41.84138184 145.7884932 -39.5625 139.625 C-39.14061401 138.49263916 -39.14061401 138.49263916 -38.71020508 137.33740234 C-34.99119976 127.08548837 -32.87392305 117.5334191 -32.3125 106.625 C-32.15804775 104.0662971 -32.00169123 101.50770866 -31.84375 98.94921875 C-31.80326538 98.27326157 -31.76278076 97.59730438 -31.72106934 96.90086365 C-31.18744002 88.07225313 -30.49606651 79.25552919 -29.8125 70.4375 C-29.71560883 69.17703857 -29.71560883 69.17703857 -29.61676025 67.89111328 C-28.81353773 57.44644642 -27.95808989 47.01047586 -26.93920898 36.58422852 C-26.54209623 32.40473158 -26.24103339 28.24237735 -26.07421875 24.046875 C-26.03893066 23.17708008 -26.00364258 22.30728516 -25.96728516 21.41113281 C-25.90814631 19.78590957 -25.86113289 18.16017262 -25.82958984 16.53417969 C-25.63916036 11.02278178 -24.58126477 6.86236971 -20.8125 2.73046875 C-14.38427205 -2.27484416 -7.55888886 -3.41140864 0 0 Z " fill="#17B7B9" transform="translate(312.3125,16.625)"/>
<path d="M0 0 C3.0051183 0.79225846 4.13144734 2.21865722 6.1484375 4.56640625 C10.05402304 13.19871634 10.85843228 22.01925524 10.7734375 31.37890625 C10.76413208 33.25328369 10.76413208 33.25328369 10.75463867 35.16552734 C10.32315394 54.33317287 5.4158411 75.3159455 -6.8515625 90.56640625 C-10.51869122 93.01115873 -13.58867346 93.39482193 -17.8515625 92.56640625 C-23.02233819 87.95463333 -24.96286759 81.2556711 -25.8515625 74.56640625 C-26.04171117 70.07889753 -26.03737545 65.59201881 -26.03686523 61.10107422 C-26.03903522 58.9682163 -26.05717778 56.83589056 -26.07617188 54.703125 C-26.1521217 36.7713977 -23.09188247 18.15227438 -11.453125 3.84765625 C-7.95235083 0.36622337 -4.67712132 0.00820548 0 0 Z " fill="#F3F5F5" transform="translate(211.8515625,114.43359375)"/>
<path d="M0 0 C0.99 0.33 1.98 0.66 3 1 C3.6875 3.0625 3.6875 3.0625 4 5 C4.66 5 5.32 5 6 5 C6.66 3.35 7.32 1.7 8 0 C8.99 0 9.98 0 11 0 C11 3.63 11 7.26 11 11 C10.01 11 9.02 11 8 11 C7.67 10.01 7.34 9.02 7 8 C5.68 8 4.36 8 3 8 C2.67 8.66 2.34 9.32 2 10 C1.01 10 0.02 10 -1 10 C-1.02689216 8.52093108 -1.04634621 7.04172517 -1.0625 5.5625 C-1.07410156 4.73878906 -1.08570313 3.91507813 -1.09765625 3.06640625 C-1 1 -1 1 0 0 Z " fill="#48C5C6" transform="translate(381,244)"/>
<path d="M0 0 C1.134375 0.020625 2.26875 0.04125 3.4375 0.0625 C3.251875 1.135 3.06625 2.2075 2.875 3.3125 C2.5070432 6.46641546 2.39284657 8.16068492 3.4375 11.0625 C1.10455225 11.10491723 -1.22952567 11.10342937 -3.5625 11.0625 C-4.5625 10.0625 -4.5625 10.0625 -4.6953125 8.03125 C-4.69273437 7.2165625 -4.69015625 6.401875 -4.6875 5.5625 C-4.69007813 4.7478125 -4.69265625 3.933125 -4.6953125 3.09375 C-4.46207125 -0.47346908 -3.71748256 0.06521899 0 0 Z " fill="#4BC6C7" transform="translate(318.5625,243.9375)"/>
<path d="M0 0 C2.875 -0.125 2.875 -0.125 6 0 C8 2 8 2 8.1953125 3.9453125 C8.13020833 5.96354167 8.06510417 7.98177083 8 10 C7.01 10 6.02 10 5 10 C4.34 9.01 3.68 8.02 3 7 C2.67 7.99 2.34 8.98 2 10 C1.34 10 0.68 10 0 10 C0 6.7 0 3.4 0 0 Z " fill="#4CC6C8" transform="translate(434,244)"/>
<path d="M0 0 C0.99 0.33 1.98 0.66 3 1 C3.94921875 3.28515625 3.94921875 3.28515625 4.6875 6.0625 C5.06455078 7.44115234 5.06455078 7.44115234 5.44921875 8.84765625 C5.63097656 9.55792969 5.81273437 10.26820313 6 11 C5.01 11 4.02 11 3 11 C3 10.34 3 9.68 3 9 C0.69 9.66 -1.62 10.32 -4 11 C-3.39301257 6.87248551 -1.96189209 3.6678852 0 0 Z " fill="#41C3C4" transform="translate(412,244)"/>
<path d="M0 0 C0.99 0 1.98 0 3 0 C3 2.64 3 5.28 3 8 C3.99 8 4.98 8 6 8 C6 5.36 6 2.72 6 0 C6.99 0 7.98 0 9 0 C9.1953125 6.0546875 9.1953125 6.0546875 9 8 C7 10 7 10 4.5 10.25 C2 10 2 10 0 8 C-0.26991906 5.31160615 -0.08737357 2.70858064 0 0 Z " fill="#40C3C4" transform="translate(217,244)"/>
<path d="M0 0 C1.2065625 0.0309375 1.2065625 0.0309375 2.4375 0.0625 C2.7675 1.0525 3.0975 2.0425 3.4375 3.0625 C2.1175 3.3925 0.7975 3.7225 -0.5625 4.0625 C0.7575 4.7225 2.0775 5.3825 3.4375 6.0625 C2.5625 9.9375 2.5625 9.9375 1.4375 11.0625 C-0.22867115 11.10313832 -1.89638095 11.105221 -3.5625 11.0625 C-3.8925 10.0725 -4.2225 9.0825 -4.5625 8.0625 C-3.5725 7.7325 -2.5825 7.4025 -1.5625 7.0625 C-2.5525 6.4025 -3.5425 5.7425 -4.5625 5.0625 C-3.43829114 0.08386076 -3.43829114 0.08386076 0 0 Z " fill="#3BC1C3" transform="translate(360.5625,243.9375)"/>
<path d="M0 0 C2.31 0 4.62 0 7 0 C6.67 1.98 6.34 3.96 6 6 C4.68 6 3.36 6 2 6 C2 6.66 2 7.32 2 8 C3.65 8 5.3 8 7 8 C7 8.99 7 9.98 7 11 C4.69 11 2.38 11 0 11 C0 7.37 0 3.74 0 0 Z " fill="#3BC1C3" transform="translate(483,244)"/>
<path d="M0 0 C2.31 0 4.62 0 7 0 C7.82638376 2.89234315 8 4.88742431 8 8 C7.01 8.33 6.02 8.66 5 9 C4.34 8.34 3.68 7.68 3 7 C2.67 7.66 2.34 8.32 2 9 C1.34 9 0.68 9 0 9 C0 6.03 0 3.06 0 0 Z " fill="#15B7B9" transform="translate(507,245)"/>
<path d="M0 0 C0.99 0 1.98 0 3 0 C6 6.625 6 6.625 6 10 C3.03 10 0.06 10 -3 10 C-2.39009109 6.44219804 -1.4216319 3.3171411 0 0 Z " fill="#2DBDBF" transform="translate(269,244)"/>
<path d="M0 0 C1.875 0.1875 1.875 0.1875 4 1 C5.52164099 3.89111788 6 5.71823412 6 9 C3.03 9 0.06 9 -3 9 C-2.44271087 5.65626525 -1.64826111 2.96687001 0 0 Z " fill="#35C0C1" transform="translate(147,245)"/>
<path d="M0 0 C2.97 0 5.94 0 9 0 C9 0.99 9 1.98 9 3 C8.01 3 7.02 3 6 3 C6 5.64 6 8.28 6 11 C5.01 11 4.02 11 3 11 C3 8.36 3 5.72 3 3 C2.01 3 1.02 3 0 3 C0 2.01 0 1.02 0 0 Z " fill="#4FC7C8" transform="translate(458,244)"/>
<path d="M0 0 C0.78375 0.04125 1.5675 0.0825 2.375 0.125 C2.705 1.115 3.035 2.105 3.375 3.125 C1.725 3.455 0.075 3.785 -1.625 4.125 C-1.625 5.115 -1.625 6.105 -1.625 7.125 C0.025 7.455 1.675 7.785 3.375 8.125 C3.375 8.785 3.375 9.445 3.375 10.125 C1.04205225 10.16741723 -1.29202567 10.16592937 -3.625 10.125 C-4.625 9.125 -4.625 9.125 -4.8125 5.6875 C-4.59380609 1.53231566 -4.30444478 0.20497356 0 0 Z " fill="#25BBBD" transform="translate(124.625,243.875)"/>
<path d="M0 0 C0 0.99 0 1.98 0 3 C-1.65 3.33 -3.3 3.66 -5 4 C-5 4.99 -5 5.98 -5 7 C-3.35 7.33 -1.7 7.66 0 8 C0 8.66 0 9.32 0 10 C-2.875 10.125 -2.875 10.125 -6 10 C-8 8 -8 8 -8.3125 5.5625 C-8 3 -8 3 -6.8125 1.1875 C-4.44017475 -0.36678206 -2.77958655 -0.22537188 0 0 Z " fill="#2FBEC0" transform="translate(201,244)"/>
<path d="M0 0 C2.64 0 5.28 0 8 0 C8 0.99 8 1.98 8 3 C7.01 3 6.02 3 5 3 C5 5.31 5 7.62 5 10 C4.34 10 3.68 10 3 10 C3 7.69 3 5.38 3 3 C2.01 3 1.02 3 0 3 C0 2.01 0 1.02 0 0 Z " fill="#34BFC1" transform="translate(290,244)"/>
<path d="M0 0 C0.66 0 1.32 0 2 0 C2 2.64 2 5.28 2 8 C3.65 8 5.3 8 7 8 C7 8.99 7 9.98 7 11 C4.69 11 2.38 11 0 11 C0 7.37 0 3.74 0 0 Z " fill="#38C0C2" transform="translate(170,244)"/>
<path d="M0 0 C0.66 0 1.32 0 2 0 C2 2.64 2 5.28 2 8 C3.65 8 5.3 8 7 8 C7 8.66 7 9.32 7 10 C4.69 10 2.38 10 0 10 C0 6.7 0 3.4 0 0 Z " fill="#25BBBD" transform="translate(243,244)"/>
<path d="M0 0 C0.99 0 1.98 0 3 0 C4.125 3.75 4.125 3.75 3 6 C0.4375 6.625 0.4375 6.625 -2 7 C-1.34 4.69 -0.68 2.38 0 0 Z " fill="#49C5C7" transform="translate(269,244)"/>
<path d="M0 0 C0.66 0 1.32 0 2 0 C2 2.64 2 5.28 2 8 C1.01 8 0.02 8 -1 8 C-1.66 6.68 -2.32 5.36 -3 4 C-2.01 3.67 -1.02 3.34 0 3 C0 2.01 0 1.02 0 0 Z " fill="#2ABDBE" transform="translate(440,246)"/>
<path d="M0 0 C1.65 0 3.3 0 5 0 C5.33 0.99 5.66 1.98 6 3 C3.36 3.33 0.72 3.66 -2 4 C-1.34 2.68 -0.68 1.36 0 0 Z " fill="#3CC2C3" transform="translate(122,244)"/>
<path d="M0 0 C0.66 0.99 1.32 1.98 2 3 C4.56282742 3.72965366 4.56282742 3.72965366 7 4 C7 4.66 7 5.32 7 6 C4.125 6.125 4.125 6.125 1 6 C0.34 5.34 -0.32 4.68 -1 4 C-0.625 1.875 -0.625 1.875 0 0 Z " fill="#1BB8BA" transform="translate(194,248)"/>
<path d="M0 0 C-0.33 0.99 -0.66 1.98 -1 3 C-2.65 3 -4.3 3 -6 3 C-6 2.01 -6 1.02 -6 0 C-3 -1 -3 -1 0 0 Z " fill="#81D5D6" transform="translate(515,246)"/>
<path d="M0 0 C0.66 0 1.32 0 2 0 C2 2.97 2 5.94 2 9 C1.67 9 1.34 9 1 9 C1 7.35 1 5.7 1 4 C0.01 4 -0.98 4 -2 4 C-1.34 2.68 -0.68 1.36 0 0 Z " fill="#1CB9BB" transform="translate(389,245)"/>
<path d="M0 0 C0.144375 0.61875 0.28875 1.2375 0.4375 1.875 C0.93152225 4.03258322 0.93152225 4.03258322 2 6 C0.68 5.67 -0.64 5.34 -2 5 C-2.33 3.68 -2.66 2.36 -3 1 C-2.01 0.67 -1.02 0.34 0 0 Z " fill="#20BABC" transform="translate(513,248)"/>
</svg>
